<svg xmlns="http://www.w3.org/2000/svg" width="529" height="54" viewBox="0 0 529 54" fill="none"><path d="M21.1792 43.0914H16.2122V29.8608C16.2122 27.6924 15.8293 26.0898 15.0602 25.0497C14.2911 24.0095 13.1866 23.4911 11.7398 23.4911C11.0487 23.4911 10.3541 23.6267 9.66293 23.8977C8.97175 24.1688 8.31446 24.5516 7.69782 25.0497C7.08118 25.5477 6.52891 26.1339 6.0478 26.8115C5.56669 27.4891 5.20416 28.2345 4.9636 29.0477V43.0914H0V10.125H4.96699V24.2162C5.87162 22.5899 7.09812 21.3261 8.64649 20.4215C10.1983 19.5169 11.8889 19.0663 13.7253 19.0663C15.1991 19.0663 16.4121 19.3305 17.3607 19.8557C18.3094 20.3842 19.0684 21.0822 19.641 21.9563C20.2135 22.8305 20.6133 23.8469 20.837 25.0056C21.064 26.1644 21.1758 27.3909 21.1758 28.6851V43.0914H21.1792Z" fill="#002C5B"></path><path d="M37.5744 43.5461C35.7075 43.5461 34.0304 43.2141 32.5396 42.5534C31.0488 41.8927 29.7783 41.0017 28.7246 39.8904C27.6709 38.7757 26.8577 37.4746 26.2851 35.9839C25.7125 34.4931 25.4279 32.9345 25.4279 31.3082C25.4279 29.6819 25.7125 28.1234 26.2851 26.636C26.8577 25.1452 27.6777 23.8442 28.7449 22.7295C29.8122 21.6148 31.0929 20.7271 32.5837 20.0665C34.0744 19.4058 35.738 19.0737 37.5744 19.0737C39.4107 19.0737 41.0743 19.4058 42.5651 20.0665C44.0559 20.7305 45.3332 21.6182 46.4038 22.7295C47.4711 23.8442 48.2944 25.1452 48.8636 26.636C49.4362 28.1268 49.7208 29.6853 49.7208 31.3082C49.7208 32.9312 49.4328 34.4931 48.8636 35.9839C48.291 37.4746 47.4711 38.7757 46.4038 39.8904C45.3366 41.0051 44.0559 41.8927 42.5651 42.5534C41.0743 43.2141 39.4107 43.5461 37.5744 43.5461ZM30.5271 31.3523C30.5271 32.4975 30.7066 33.5512 31.0692 34.5134C31.4317 35.4756 31.9264 36.3125 32.5599 37.0206C33.1935 37.7287 33.9389 38.2844 34.7961 38.691C35.6533 39.0975 36.5817 39.3008 37.5744 39.3008C38.5671 39.3008 39.4954 39.0975 40.3526 38.691C41.2098 38.2844 41.9552 37.7186 42.5888 36.9969C43.2224 36.2752 43.717 35.4316 44.0796 34.4694C44.4421 33.5071 44.6217 32.4534 44.6217 31.3082C44.6217 30.1631 44.4421 29.1466 44.0796 28.1708C43.717 27.1917 43.2224 26.3413 42.5888 25.6196C41.9552 24.8979 41.2098 24.3321 40.3526 23.9255C39.4954 23.5189 38.5705 23.3157 37.5744 23.3157C36.5783 23.3157 35.7007 23.5257 34.8435 23.9492C33.9863 24.3728 33.241 24.942 32.6074 25.667C31.9738 26.3921 31.4724 27.2391 31.0929 28.2183C30.7168 29.1974 30.5271 30.2444 30.5271 31.3557V31.3523Z" fill="#002C5B"></path><path d="M90.2734 43.0911H85.3064V29.8605C85.3064 27.665 84.9439 26.0523 84.2222 25.029C83.5006 24.0058 82.4469 23.4942 81.0611 23.4942C79.6754 23.4942 78.3574 24.0126 77.1987 25.0528C76.0399 26.0929 75.2031 27.438 74.6915 29.0948V43.0945H69.7245V29.8639C69.7245 27.6379 69.3619 26.0184 68.6403 25.0087C67.9186 23.9991 66.8784 23.4976 65.5232 23.4976C64.1679 23.4976 62.8127 24.0092 61.6404 25.0324C60.4681 26.0556 59.6245 27.3973 59.1129 29.0507V43.0945H54.1459V19.4725H58.6622V24.2159C59.594 22.5591 60.8239 21.2886 62.3417 20.4009C63.863 19.5132 65.6011 19.0693 67.5561 19.0693C69.511 19.0693 71.056 19.5809 72.1842 20.6042C73.3125 21.6274 74.0138 22.9081 74.2849 24.4429C75.2776 22.698 76.5278 21.3665 78.0321 20.4449C79.5365 19.5267 81.2542 19.0693 83.1821 19.0693C84.5678 19.0693 85.7198 19.3336 86.638 19.8588C87.5562 20.3873 88.288 21.0853 88.8267 21.9594C89.3688 22.8335 89.7449 23.85 89.955 25.0087C90.165 26.1675 90.27 27.394 90.27 28.6882V43.0945L90.2734 43.0911Z" fill="#002C5B"></path><path d="M106.713 43.5456C104.876 43.5456 103.206 43.2203 101.698 42.5732C100.194 41.9261 98.9065 41.0452 97.8359 39.9305C96.7652 38.8158 95.9385 37.5215 95.3523 36.0477C94.7662 34.5738 94.4714 33.0085 94.4714 31.3517C94.4714 29.6949 94.7662 28.1229 95.3523 26.6321C95.9385 25.1413 96.7686 23.8335 97.8359 22.7019C98.9031 21.5736 100.191 20.6859 101.698 20.0388C103.203 19.3917 104.89 19.0664 106.757 19.0664C108.624 19.0664 110.257 19.3984 111.747 20.0591C113.238 20.7232 114.509 21.6007 115.563 22.7019C116.616 23.803 117.423 25.0803 117.978 26.5406C118.534 28.0009 118.812 29.5289 118.812 31.1247C118.812 31.4873 118.798 31.8261 118.768 32.1412C118.737 32.4563 118.707 32.7205 118.676 32.9306H99.7535C99.845 33.9843 100.092 34.933 100.499 35.7766C100.905 36.6203 101.431 37.3487 102.081 37.9654C102.728 38.582 103.467 39.0563 104.294 39.3884C105.12 39.7204 105.988 39.8864 106.892 39.8864C107.553 39.8864 108.21 39.8051 108.857 39.6391C109.505 39.4731 110.101 39.2325 110.643 38.9174C111.185 38.6023 111.666 38.2161 112.09 37.7655C112.51 37.3148 112.842 36.8168 113.082 36.2747L117.328 37.4944C116.515 39.2698 115.166 40.7233 113.286 41.8515C111.405 42.9798 109.213 43.5456 106.716 43.5456H106.713ZM113.892 29.4984C113.801 28.5057 113.553 27.5875 113.147 26.7439C112.74 25.9003 112.222 25.1854 111.588 24.5992C110.955 24.0131 110.219 23.5523 109.376 23.2202C108.532 22.8882 107.644 22.7222 106.713 22.7222C105.781 22.7222 104.897 22.8882 104.07 23.2202C103.243 23.5523 102.511 24.0097 101.881 24.5992C101.248 25.1854 100.736 25.9003 100.346 26.7439C99.9534 27.5875 99.7129 28.5057 99.6248 29.4984H113.896H113.892Z" fill="#002C5B"></path><path d="M121.343 31.2603C121.343 29.6035 121.627 28.0382 122.2 26.5643C122.772 25.0905 123.592 23.7962 124.66 22.6815C125.727 21.5668 127.014 20.6859 128.522 20.0388C130.026 19.3917 131.714 19.0664 133.58 19.0664C136.02 19.0664 138.121 19.6017 139.879 20.669C141.641 21.7396 142.955 23.1593 143.83 24.938L138.998 26.4728C138.425 25.4801 137.656 24.7042 136.694 24.1452C135.732 23.5896 134.661 23.3117 133.489 23.3117C132.496 23.3117 131.568 23.5082 130.711 23.8979C129.854 24.2909 129.108 24.8398 128.475 25.5479C127.841 26.256 127.346 27.0895 126.984 28.0551C126.621 29.0173 126.442 30.088 126.442 31.2603C126.442 32.4326 126.628 33.4659 127.007 34.4451C127.384 35.4243 127.895 36.2747 128.542 36.9964C129.189 37.718 129.942 38.2838 130.799 38.6904C131.656 39.097 132.567 39.3003 133.53 39.3003C134.133 39.3003 134.732 39.219 135.336 39.0529C135.939 38.8869 136.487 38.6531 136.986 38.3516C137.48 38.0501 137.917 37.7045 138.297 37.3148C138.673 36.9252 138.951 36.5017 139.13 36.0511L144.009 37.4978C143.226 39.2732 141.915 40.7267 140.079 41.8549C138.243 42.9832 136.074 43.549 133.577 43.549C131.741 43.549 130.07 43.217 128.566 42.5563C127.062 41.8956 125.774 40.9977 124.704 39.8695C123.633 38.7412 122.806 37.4402 122.22 35.963C121.634 34.4891 121.339 32.9238 121.339 31.267L121.343 31.2603Z" fill="#002C5B"></path><path d="M154.4 43.5461C153.255 43.5461 152.195 43.3564 151.216 42.9803C150.236 42.6042 149.393 42.0859 148.688 41.4218C147.98 40.7611 147.424 39.9751 147.018 39.0738C146.611 38.1692 146.408 37.1934 146.408 36.1397C146.408 35.025 146.648 34.0187 147.13 33.1141C147.611 32.2095 148.295 31.4268 149.183 30.7661C150.07 30.1055 151.124 29.5939 152.344 29.2313C153.564 28.8688 154.912 28.6892 156.386 28.6892C157.501 28.6892 158.598 28.7875 159.683 28.984C160.767 29.1805 161.746 29.4448 162.617 29.7734V28.1471C162.617 26.4022 162.119 25.0402 161.126 24.061C160.133 23.0819 158.703 22.594 156.837 22.594C155.573 22.594 154.329 22.8278 153.11 23.2953C151.89 23.7629 150.633 24.4304 149.339 25.3045L147.804 22.1434C150.843 20.0969 154.004 19.0737 157.287 19.0737C160.57 19.0737 163.067 19.9038 164.873 21.5572C166.679 23.214 167.584 25.5925 167.584 28.6926V37.2273C167.584 38.281 168.021 38.8231 168.895 38.8536V43.0989C168.414 43.1904 168 43.248 167.651 43.2785C167.306 43.309 166.967 43.3225 166.635 43.3225C165.669 43.3225 164.927 43.082 164.399 42.6009C163.87 42.1197 163.548 41.5031 163.426 40.7509L163.291 39.2602C162.237 40.6459 160.933 41.7064 159.384 42.445C157.833 43.1836 156.169 43.5529 154.394 43.5529L154.4 43.5461ZM155.756 39.887C156.959 39.887 158.097 39.6701 159.164 39.2331C160.231 38.796 161.068 38.1861 161.671 37.4035C162.305 36.8614 162.62 36.2888 162.62 35.6891V32.572C161.776 32.24 160.882 31.9859 159.933 31.8029C158.985 31.6233 158.06 31.5319 157.155 31.5319C155.38 31.5319 153.926 31.9147 152.798 32.6838C151.67 33.4529 151.104 34.466 151.104 35.7331C151.104 36.9088 151.541 37.8948 152.415 38.691C153.289 39.4906 154.4 39.887 155.756 39.887Z" fill="#002C5B"></path><path d="M186.872 23.762C184.944 23.823 183.237 24.2668 181.746 25.0935C180.255 25.9202 179.195 27.1027 178.561 28.6375V43.0879H173.594V19.4726H178.202V24.7581C179.015 23.1318 180.076 21.8308 181.387 20.8516C182.698 19.8724 184.104 19.3371 185.609 19.249H186.354C186.55 19.249 186.723 19.2626 186.872 19.2931V23.7654V23.762Z" fill="#002C5B"></path><path d="M200.015 43.5456C198.178 43.5456 196.508 43.2203 195.004 42.5732C193.496 41.9261 192.212 41.0452 191.141 39.9305C190.071 38.8158 189.244 37.5215 188.658 36.0477C188.072 34.5738 187.777 33.0085 187.777 31.3517C187.777 29.6949 188.072 28.1229 188.658 26.6321C189.244 25.1413 190.074 23.8335 191.141 22.7019C192.208 21.5736 193.496 20.6859 195.004 20.0388C196.508 19.3917 198.195 19.0664 200.062 19.0664C201.929 19.0664 203.562 19.3984 205.053 20.0591C206.544 20.7232 207.814 21.6007 208.868 22.7019C209.922 23.803 210.728 25.0803 211.284 26.5406C211.839 28.0009 212.12 29.5289 212.12 31.1247C212.12 31.4873 212.103 31.8261 212.076 32.1412C212.046 32.4563 212.015 32.7205 211.985 32.9306H193.062C193.154 33.9843 193.401 34.933 193.808 35.7766C194.214 36.6203 194.739 37.3487 195.39 37.9654C196.037 38.582 196.776 39.0563 197.602 39.3884C198.429 39.7204 199.296 39.8864 200.198 39.8864C200.858 39.8864 201.516 39.8051 202.163 39.6391C202.81 39.4731 203.406 39.2325 203.945 38.9174C204.487 38.6023 204.968 38.2161 205.392 37.7655C205.812 37.3148 206.144 36.8168 206.384 36.2747L210.63 37.4944C209.816 39.2698 208.468 40.7233 206.588 41.8515C204.707 42.9798 202.515 43.5456 200.018 43.5456H200.015ZM207.194 29.4984C207.103 28.5057 206.855 27.5875 206.449 26.7439C206.042 25.9003 205.524 25.1854 204.89 24.5992C204.257 24.0131 203.521 23.5523 202.678 23.2202C201.834 22.8882 200.946 22.7222 200.015 22.7222C199.083 22.7222 198.202 22.8882 197.372 23.2202C196.545 23.5523 195.813 24.0097 195.183 24.5992C194.55 25.1854 194.038 25.9003 193.648 26.7439C193.255 27.5875 193.015 28.5057 192.927 29.4984H207.197H207.194Z" fill="#002C5B"></path><g clip-path="url(#clip0_627_2297)"><path d="M294.848 23.8697C294.606 23.3256 294.056 22.9617 293.448 22.9617H286.026C285.176 17.2681 282.559 12.0574 278.42 7.8773C273.314 2.78552 266.562 0 259.382 0C252.203 0 245.389 2.78552 240.341 7.8773C237.24 10.9655 234.989 14.724 233.65 18.7816L236.563 15.8807L237.178 15.2681L241.195 11.2682L249.93 20.0284L251.143 21.2464C251.143 21.2464 251.161 21.2176 251.172 21.2031C252.995 18.5978 255.977 16.9005 259.386 16.9005C263.46 16.9005 266.989 19.3834 268.574 22.8968H261.76C261.152 22.8968 260.605 23.2607 260.359 23.8049C260.117 24.349 260.236 25.0157 260.663 25.4409L267.636 32.4101L277.577 42.345L285.158 34.7668L294.49 25.4409C294.979 25.0769 295.098 24.4103 294.856 23.8661L294.848 23.8697Z" fill="url(#paint0_linear_627_2297)"></path><path d="M277.573 42.3478L267.633 32.4129C267.622 32.4309 267.608 32.4525 267.593 32.4705C265.769 35.0759 262.788 36.7731 259.379 36.7731C255.304 36.7731 251.773 34.2903 250.191 30.7769H257.005C257.613 30.7769 258.159 30.4129 258.405 29.8688C258.648 29.3247 258.528 28.658 258.101 28.2328L251.139 21.2492L249.927 20.0312L241.192 11.271L237.175 15.2709L236.56 15.8835L233.647 18.7843L224.217 28.1715C223.79 28.5967 223.67 29.2634 223.913 29.8075C224.155 30.3517 224.702 30.7156 225.313 30.7156H232.735C233.585 36.4092 236.202 41.6199 240.338 45.8C245.447 50.8881 252.2 53.6773 259.379 53.6773C266.558 53.6773 273.372 50.8917 278.42 45.8C281.521 42.7117 283.772 38.9533 285.111 34.8957C285.125 34.8561 285.136 34.8128 285.147 34.7696L277.566 42.3478H277.573Z" fill="url(#paint1_linear_627_2297)"></path></g><path d="M327.823 43.0914H322.856V29.8608C322.856 27.6924 322.473 26.0898 321.704 25.0497C320.935 24.0095 319.83 23.4911 318.384 23.4911C317.693 23.4911 316.998 23.6267 316.307 23.8977C315.616 24.1688 314.958 24.5516 314.342 25.0497C313.725 25.5477 313.173 26.1339 312.692 26.8115C312.211 27.4891 311.848 28.2345 311.607 29.0477V43.0914H306.641V10.125H311.607V24.2162C312.512 22.5899 313.739 21.3261 315.287 20.4215C316.839 19.5169 318.529 19.0663 320.366 19.0663C321.84 19.0663 323.053 19.3305 324.001 19.8557C324.95 20.3842 325.709 21.0822 326.281 21.9563C326.854 22.8305 327.254 23.8469 327.477 25.0056C327.704 26.1644 327.816 27.3909 327.816 28.6851V43.0914H327.823Z" fill="#002C5B"></path><path d="M344.215 43.5461C342.348 43.5461 340.671 43.2141 339.18 42.5534C337.689 41.8927 336.419 41.0017 335.365 39.8904C334.311 38.7757 333.498 37.4746 332.926 35.9839C332.353 34.4931 332.068 32.9345 332.068 31.3082C332.068 29.6819 332.353 28.1234 332.926 26.636C333.498 25.1452 334.318 23.8442 335.385 22.7295C336.453 21.6148 337.733 20.7271 339.224 20.0665C340.715 19.4058 342.378 19.0737 344.215 19.0737C346.051 19.0737 347.715 19.4058 349.205 20.0665C350.696 20.7305 351.974 21.6182 353.044 22.7295C354.111 23.8442 354.935 25.1452 355.504 26.636C356.077 28.1268 356.361 29.6853 356.361 31.3082C356.361 32.9312 356.073 34.4931 355.504 35.9839C354.931 37.4746 354.111 38.7757 353.044 39.8904C351.977 41.0051 350.696 41.8927 349.205 42.5534C347.715 43.2141 346.051 43.5461 344.215 43.5461ZM337.171 31.3523C337.171 32.4975 337.35 33.5512 337.713 34.5134C338.075 35.4756 338.57 36.3125 339.204 37.0206C339.837 37.7287 340.583 38.2844 341.44 38.691C342.297 39.0975 343.225 39.3008 344.218 39.3008C345.211 39.3008 346.139 39.0975 346.996 38.691C347.854 38.2844 348.599 37.7186 349.233 36.9969C349.866 36.2752 350.361 35.4316 350.723 34.4694C351.086 33.5071 351.265 32.4534 351.265 31.3082C351.265 30.1631 351.086 29.1466 350.723 28.1708C350.361 27.1917 349.866 26.3413 349.233 25.6196C348.599 24.8979 347.854 24.3321 346.996 23.9255C346.139 23.5189 345.214 23.3157 344.218 23.3157C343.222 23.3157 342.344 23.5257 341.487 23.9492C340.63 24.3728 339.885 24.942 339.251 25.667C338.618 26.3921 338.116 27.2391 337.737 28.2183C337.361 29.1974 337.171 30.2444 337.171 31.3557V31.3523Z" fill="#002C5B"></path><path d="M396.917 43.0911H391.95V29.8605C391.95 27.665 391.587 26.0523 390.866 25.029C390.144 24.0058 389.09 23.4942 387.705 23.4942C386.319 23.4942 385.001 24.0126 383.842 25.0528C382.683 26.0929 381.846 27.438 381.335 29.0948V43.0945H376.368V29.8639C376.368 27.6379 376.005 26.0184 375.284 25.0087C374.562 23.9991 373.522 23.4976 372.167 23.4976C370.811 23.4976 369.456 24.0092 368.284 25.0324C367.112 26.0556 366.268 27.3973 365.756 29.0507V43.0945H360.789V19.4725H365.306V24.2159C366.237 22.5591 367.467 21.2886 368.985 20.4009C370.506 19.5132 372.245 19.0693 374.199 19.0693C376.154 19.0693 377.699 19.5809 378.828 20.6042C379.956 21.6274 380.657 22.9081 380.928 24.4429C381.921 22.698 383.171 21.3665 384.676 20.4449C386.18 19.5267 387.898 19.0693 389.826 19.0693C391.211 19.0693 392.363 19.3336 393.281 19.8588C394.2 20.3873 394.931 21.0853 395.47 21.9594C396.012 22.8335 396.388 23.85 396.598 25.0087C396.808 26.1675 396.913 27.394 396.913 28.6882V43.0945L396.917 43.0911Z" fill="#002C5B"></path><path d="M413.356 43.5456C411.52 43.5456 409.849 43.2203 408.341 42.5732C406.837 41.9261 405.55 41.0452 404.479 39.9305C403.408 38.8158 402.582 37.5215 401.996 36.0477C401.409 34.5738 401.115 33.0085 401.115 31.3517C401.115 29.6949 401.409 28.1229 401.996 26.6321C402.582 25.1413 403.412 23.8335 404.479 22.7019C405.546 21.5736 406.834 20.6859 408.341 20.0388C409.846 19.3917 411.533 19.0664 413.4 19.0664C415.267 19.0664 416.9 19.3984 418.391 20.0591C419.881 20.7232 421.152 21.6007 422.206 22.7019C423.259 23.803 424.066 25.0803 424.621 26.5406C425.177 28.0009 425.455 29.5289 425.455 31.1247C425.455 31.4873 425.441 31.8261 425.411 32.1412C425.38 32.4563 425.35 32.7205 425.319 32.9306H406.397C406.488 33.9843 406.735 34.933 407.142 35.7766C407.549 36.6203 408.074 37.3487 408.724 37.9654C409.371 38.582 410.11 39.0563 410.937 39.3884C411.763 39.7204 412.631 39.8864 413.535 39.8864C414.196 39.8864 414.853 39.8051 415.501 39.6391C416.148 39.4731 416.744 39.2325 417.286 38.9174C417.828 38.6023 418.309 38.2161 418.733 37.7655C419.153 37.3148 419.485 36.8168 419.726 36.2747L423.971 37.4944C423.158 39.2698 421.809 40.7233 419.929 41.8515C418.048 42.9798 415.856 43.5456 413.359 43.5456H413.356ZM420.535 29.4984C420.444 28.5057 420.197 27.5875 419.79 26.7439C419.383 25.9003 418.865 25.1854 418.231 24.5992C417.598 24.0131 416.863 23.5523 416.019 23.2202C415.175 22.8882 414.288 22.7222 413.356 22.7222C412.424 22.7222 411.54 22.8882 410.713 23.2202C409.886 23.5523 409.155 24.0097 408.524 24.5992C407.891 25.1854 407.379 25.9003 406.99 26.7439C406.597 27.5875 406.356 28.5057 406.268 29.4984H420.539H420.535Z" fill="#002C5B"></path><path d="M442.256 43.5454C440.451 43.5454 438.818 43.1152 437.357 42.258C435.897 41.4008 434.745 40.2488 433.901 38.8021V43.0914H429.521V10.125H434.488V23.9452C435.419 22.4408 436.588 21.2516 437.987 20.3775C439.387 19.5033 441.037 19.0663 442.934 19.0663C444.499 19.0663 445.929 19.4051 447.223 20.0827C448.518 20.7603 449.626 21.6649 450.544 22.7932C451.462 23.9214 452.17 25.2326 452.665 26.7234C453.159 28.2142 453.41 29.7727 453.41 31.399C453.41 33.0253 453.126 34.6652 452.553 36.1424C451.98 37.6196 451.198 38.9037 450.205 40.0049C449.212 41.106 448.03 41.97 446.661 42.6002C445.292 43.2337 443.822 43.5488 442.256 43.5488V43.5454ZM440.949 39.3001C442.033 39.3001 443.026 39.0833 443.93 38.6462C444.835 38.2092 445.607 37.6298 446.258 36.9081C446.905 36.1864 447.41 35.3496 447.769 34.4009C448.128 33.4522 448.311 32.4527 448.311 31.399C448.311 30.3453 448.138 29.3289 447.793 28.3497C447.447 27.3705 446.963 26.5134 446.346 25.7747C445.729 25.0361 444.991 24.4432 444.133 23.9926C443.276 23.542 442.334 23.315 441.311 23.315C439.776 23.315 438.414 23.813 437.225 24.8057C436.036 25.7985 435.124 27.0046 434.494 28.4175V34.6482C434.674 35.3394 434.992 35.9662 435.443 36.5219C435.894 37.0809 436.422 37.5688 437.025 37.9889C437.628 38.4124 438.275 38.7343 438.967 38.9613C439.658 39.1883 440.322 39.3001 440.955 39.3001H440.949Z" fill="#002C5B"></path><path d="M464.161 43.5461C463.016 43.5461 461.955 43.3564 460.976 42.9803C459.997 42.6042 459.153 42.0859 458.449 41.4218C457.74 40.7611 457.185 39.9751 456.778 39.0738C456.372 38.1692 456.168 37.1934 456.168 36.1397C456.168 35.025 456.409 34.0187 456.89 33.1141C457.371 32.2095 458.056 31.4268 458.943 30.7661C459.831 30.1055 460.885 29.5939 462.104 29.2313C463.324 28.8688 464.673 28.6892 466.146 28.6892C467.261 28.6892 468.359 28.7875 469.443 28.984C470.527 29.1805 471.506 29.4448 472.377 29.7734V28.1471C472.377 26.4022 471.879 25.0402 470.886 24.061C469.894 23.0819 468.464 22.594 466.597 22.594C465.333 22.594 464.09 22.8278 462.87 23.2953C461.65 23.7629 460.393 24.4304 459.099 25.3045L457.564 22.1434C460.603 20.0969 463.765 19.0737 467.048 19.0737C470.331 19.0737 472.828 19.9038 474.634 21.5572C476.44 23.214 477.344 25.5925 477.344 28.6926V37.2273C477.344 38.281 477.781 38.8231 478.655 38.8536V43.0989C478.174 43.1904 477.761 43.248 477.412 43.2785C477.066 43.309 476.728 43.3225 476.395 43.3225C475.43 43.3225 474.688 43.082 474.159 42.6009C473.631 42.1197 473.309 41.5031 473.187 40.7509L473.051 39.2602C471.998 40.6459 470.693 41.7064 469.145 42.445C467.593 43.1836 465.93 43.5529 464.154 43.5529L464.161 43.5461ZM465.516 39.887C466.719 39.887 467.857 39.6701 468.925 39.2331C469.992 38.796 470.829 38.1861 471.432 37.4035C472.065 36.8614 472.381 36.2888 472.381 35.6891V32.572C471.537 32.24 470.642 31.9859 469.694 31.8029C468.745 31.6233 467.82 31.5319 466.916 31.5319C465.14 31.5319 463.687 31.9147 462.558 32.6838C461.43 33.4529 460.864 34.466 460.864 35.7331C460.864 36.9088 461.301 37.8948 462.176 38.691C463.05 39.4906 464.161 39.887 465.516 39.887Z" fill="#002C5B"></path><path d="M491.934 43.5456C490.036 43.5456 488.146 43.2373 486.265 42.6206C484.385 42.004 482.765 41.1231 481.41 39.9779L483.395 36.8168C484.812 37.84 486.211 38.6159 487.597 39.141C488.982 39.6696 490.395 39.9305 491.842 39.9305C493.289 39.9305 494.485 39.6459 495.342 39.0733C496.199 38.5007 496.629 37.6875 496.629 36.6338C496.629 35.6411 496.148 34.9194 495.183 34.4654C494.221 34.0148 492.713 33.5168 490.666 32.9747C489.193 32.585 487.925 32.2055 486.872 31.8464C485.818 31.4839 484.961 31.0638 484.297 30.5826C483.633 30.1015 483.152 29.5425 482.85 28.9123C482.548 28.2787 482.399 27.513 482.399 26.6084C482.399 25.4056 482.633 24.3349 483.101 23.4032C483.568 22.4715 484.215 21.6786 485.042 21.0315C485.869 20.3844 486.841 19.8965 487.956 19.5645C489.071 19.2324 490.273 19.0664 491.568 19.0664C493.343 19.0664 495 19.3375 496.535 19.8796C498.069 20.4217 499.442 21.2043 500.644 22.2275L498.52 25.2091C496.321 23.4642 493.987 22.5901 491.52 22.5901C490.256 22.5901 489.196 22.8543 488.335 23.3795C487.478 23.908 487.048 24.7415 487.048 25.8867C487.048 26.3678 487.139 26.7744 487.319 27.1064C487.498 27.4385 487.793 27.7231 488.2 27.9636C488.606 28.2042 489.132 28.4244 489.782 28.6175C490.429 28.814 491.236 29.0309 492.198 29.2714C493.794 29.6645 495.169 30.0541 496.331 30.4471C497.49 30.8401 498.446 31.2975 499.198 31.8261C499.95 32.3546 500.509 32.9713 500.868 33.676C501.231 34.3841 501.41 35.2345 501.41 36.2273C501.41 38.4837 500.56 40.2693 498.859 41.5771C497.158 42.8883 494.847 43.5422 491.927 43.5422L491.934 43.5456Z" fill="#002C5B"></path><path d="M516.453 43.5456C514.617 43.5456 512.947 43.2203 511.439 42.5732C509.931 41.9261 508.647 41.0452 507.576 39.9305C506.509 38.8158 505.679 37.5215 505.093 36.0477C504.507 34.5738 504.212 33.0085 504.212 31.3517C504.212 29.6949 504.507 28.1229 505.093 26.6321C505.679 25.1413 506.509 23.8335 507.576 22.7019C508.644 21.5702 509.931 20.6859 511.439 20.0388C512.943 19.3917 514.63 19.0664 516.497 19.0664C518.364 19.0664 519.997 19.3984 521.488 20.0591C522.979 20.7232 524.249 21.6007 525.303 22.7019C526.357 23.803 527.163 25.0803 527.719 26.5406C528.274 28.0009 528.556 29.5289 528.556 31.1247C528.556 31.4873 528.539 31.8261 528.512 32.1412C528.481 32.4563 528.451 32.7205 528.42 32.9306H509.497C509.589 33.9843 509.836 34.933 510.243 35.7766C510.649 36.6203 511.175 37.3487 511.822 37.9654C512.469 38.582 513.207 39.0563 514.034 39.3884C514.861 39.7204 515.728 39.8864 516.633 39.8864C517.293 39.8864 517.951 39.8051 518.598 39.6391C519.245 39.4731 519.841 39.2325 520.383 38.9174C520.926 38.6023 521.407 38.2161 521.827 37.7655C522.247 37.3148 522.579 36.8168 522.82 36.2747L527.065 37.4944C526.252 39.2698 524.903 40.7233 523.023 41.8515C521.142 42.9798 518.95 43.5456 516.453 43.5456ZM523.636 29.4984C523.545 28.5057 523.297 27.5875 522.891 26.7439C522.484 25.9003 521.966 25.1854 521.332 24.5992C520.699 24.0131 519.963 23.5523 519.12 23.2202C518.276 22.8882 517.388 22.7222 516.457 22.7222C515.525 22.7222 514.644 22.8882 513.814 23.2202C512.984 23.5523 512.255 24.0097 511.625 24.5992C510.992 25.1854 510.48 25.9003 510.09 26.7439C509.697 27.5875 509.457 28.5057 509.369 29.4984H523.639H523.636Z" fill="#002C5B"></path><defs><linearGradient id="paint0_linear_627_2297" x1="278.723" y1="34.5073" x2="238.339" y2="25.0802" gradientUnits="userSpaceOnUse"><stop stop-color="#0067DB"></stop><stop offset="1" stop-color="#439BFF"></stop></linearGradient><linearGradient id="paint1_linear_627_2297" x1="226.762" y1="29.7145" x2="274.827" y2="40.1066" gradientUnits="userSpaceOnUse"><stop stop-color="#0068D7"></stop><stop offset="1" stop-color="#00142A"></stop></linearGradient><clipPath id="clip0_627_2297"><rect width="71.1818" height="53.6781" fill="white" transform="translate(223.79)"></rect></clipPath></defs></svg>