<svg xmlns="http://www.w3.org/2000/svg" width="217" height="23" viewBox="0 0 217 23" fill="none"><path d="M8.69515 17.6915H6.65594V12.2597C6.65594 11.3694 6.49876 10.7115 6.183 10.2845C5.86724 9.85742 5.41378 9.64459 4.81982 9.64459C4.53605 9.64459 4.2509 9.70023 3.96713 9.81151C3.68337 9.92279 3.41352 10.08 3.16035 10.2845C2.90719 10.4889 2.68046 10.7296 2.48294 11.0078C2.28541 11.286 2.13658 11.592 2.03782 11.9258V17.6915H0V4.15709H2.03921V9.94227C2.4106 9.27459 2.91415 8.75574 3.54983 8.38435C4.18691 8.01295 4.88102 7.82795 5.63494 7.82795C6.24003 7.82795 6.73801 7.93644 7.12749 8.15205C7.51697 8.36904 7.82855 8.65559 8.06363 9.01447C8.29871 9.37335 8.46285 9.79065 8.55466 10.2664C8.64785 10.7421 8.69376 11.2456 8.69376 11.777V17.6915H8.69515Z" fill="#12314F"></path><path d="M15.4264 17.8778C14.6599 17.8778 13.9714 17.7415 13.3593 17.4703C12.7473 17.199 12.2257 16.8332 11.7931 16.3769C11.3605 15.9193 11.0266 15.3852 10.7916 14.7731C10.5565 14.1611 10.4396 13.5212 10.4396 12.8535C10.4396 12.1858 10.5565 11.546 10.7916 10.9353C11.0266 10.3233 11.3633 9.78915 11.8014 9.33151C12.2396 8.87387 12.7654 8.50943 13.3774 8.23819C13.9895 7.96694 14.6725 7.83062 15.4264 7.83062C16.1803 7.83062 16.8633 7.96694 17.4753 8.23819C18.0874 8.51082 18.6118 8.87527 19.0513 9.33151C19.4895 9.78915 19.8275 10.3233 20.0612 10.9353C20.2963 11.5474 20.4131 12.1872 20.4131 12.8535C20.4131 13.5198 20.2949 14.1611 20.0612 14.7731C19.8261 15.3852 19.4895 15.9193 19.0513 16.3769C18.6132 16.8346 18.0874 17.199 17.4753 17.4703C16.8633 17.7415 16.1803 17.8778 15.4264 17.8778ZM12.5331 12.8716C12.5331 13.3418 12.6068 13.7744 12.7557 14.1694C12.9045 14.5645 13.1076 14.908 13.3677 15.1988C13.6278 15.4895 13.9338 15.7176 14.2858 15.8845C14.6377 16.0514 15.0188 16.1349 15.4264 16.1349C15.8339 16.1349 16.2151 16.0514 16.567 15.8845C16.9189 15.7176 17.2249 15.4853 17.4851 15.189C17.7452 14.8927 17.9483 14.5464 18.0971 14.1513C18.2459 13.7563 18.3197 13.3237 18.3197 12.8535C18.3197 12.3834 18.2459 11.9661 18.0971 11.5655C17.9483 11.1635 17.7452 10.8143 17.4851 10.518C17.2249 10.2218 16.9189 9.98946 16.567 9.82254C16.2151 9.65562 15.8353 9.57216 15.4264 9.57216C15.0174 9.57216 14.6572 9.6584 14.3052 9.83227C13.9533 10.0061 13.6473 10.2398 13.3872 10.5375C13.1271 10.8352 12.9212 11.1829 12.7654 11.5849C12.611 11.9869 12.5331 12.4168 12.5331 12.873V12.8716Z" fill="#12314F"></path><path d="M37.0617 17.6914H35.0225V12.2596C35.0225 11.3582 34.8737 10.6961 34.5774 10.276C34.2811 9.85591 33.8485 9.64587 33.2796 9.64587C32.7107 9.64587 32.1696 9.85869 31.6939 10.2857C31.2181 10.7128 30.8745 11.265 30.6645 11.9452V17.6928H28.6253V12.2609C28.6253 11.3471 28.4765 10.6822 28.1802 10.2676C27.8839 9.85313 27.4569 9.64726 26.9005 9.64726C26.3441 9.64726 25.7877 9.8573 25.3064 10.2774C24.8251 10.6975 24.4787 11.2483 24.2687 11.9271V17.6928H22.2295V7.99475H24.0837V9.94215C24.4662 9.26195 24.9711 8.74033 25.5943 8.37588C26.2189 8.01144 26.9325 7.82922 27.7351 7.82922C28.5377 7.82922 29.172 8.03926 29.6352 8.45934C30.0984 8.87943 30.3863 9.40522 30.4976 10.0353C30.9052 9.31898 31.4184 8.77232 32.036 8.39397C32.6536 8.017 33.3589 7.82922 34.1504 7.82922C34.7193 7.82922 35.1922 7.93772 35.5692 8.15332C35.9461 8.37032 36.2466 8.65687 36.4678 9.01574C36.6903 9.37462 36.8447 9.79192 36.931 10.2676C37.0172 10.7434 37.0603 11.2469 37.0603 11.7783V17.6928L37.0617 17.6914Z" fill="#12314F"></path><path d="M43.811 17.8778C43.0571 17.8778 42.3713 17.7443 41.7523 17.4786C41.1347 17.2129 40.6061 16.8512 40.1666 16.3936C39.727 15.936 39.3876 15.4046 39.147 14.7995C38.9063 14.1944 38.7853 13.5518 38.7853 12.8716C38.7853 12.1914 38.9063 11.546 39.147 10.9339C39.3876 10.3219 39.7284 9.78495 40.1666 9.32036C40.6048 8.85716 41.1333 8.49271 41.7523 8.22703C42.3699 7.96135 43.0627 7.82782 43.8291 7.82782C44.5955 7.82782 45.266 7.96413 45.878 8.23538C46.4901 8.50802 47.0117 8.86828 47.4443 9.32036C47.8769 9.77244 48.208 10.2968 48.4361 10.8964C48.6642 11.4959 48.7783 12.1232 48.7783 12.7784C48.7783 12.9272 48.7727 13.0663 48.7602 13.1957C48.7477 13.3251 48.7352 13.4335 48.7226 13.5198H40.9539C40.9915 13.9524 41.093 14.3419 41.2599 14.6882C41.4268 15.0346 41.6424 15.3337 41.9095 15.5868C42.1752 15.84 42.4784 16.0347 42.8178 16.171C43.1572 16.3074 43.5133 16.3755 43.8847 16.3755C44.156 16.3755 44.4258 16.3421 44.6915 16.274C44.9572 16.2058 45.202 16.1071 45.4246 15.9777C45.6471 15.8483 45.8447 15.6898 46.0185 15.5048C46.191 15.3197 46.3273 15.1153 46.4261 14.8927L48.169 15.3935C47.8352 16.1224 47.2816 16.7191 46.5096 17.1823C45.7375 17.6455 44.8376 17.8778 43.8124 17.8778H43.811ZM46.7585 12.1107C46.721 11.7031 46.6194 11.3262 46.4525 10.9798C46.2856 10.6335 46.0728 10.34 45.8127 10.0993C45.5525 9.85868 45.2507 9.6695 44.9043 9.53318C44.558 9.39687 44.1935 9.32871 43.811 9.32871C43.4285 9.32871 43.0654 9.39687 42.726 9.53318C42.3866 9.6695 42.0862 9.85729 41.8274 10.0993C41.5673 10.34 41.3573 10.6335 41.1973 10.9798C41.036 11.3262 40.9372 11.7031 40.901 12.1107H46.7599H46.7585Z" fill="#12314F"></path><path d="M49.8172 12.834C49.8172 12.1538 49.9341 11.5112 50.1692 10.9061C50.4042 10.301 50.7409 9.76965 51.179 9.31201C51.6172 8.85438 52.1458 8.49271 52.7648 8.22703C53.3824 7.96135 54.0751 7.82782 54.8415 7.82782C55.8431 7.82782 56.7055 8.04759 57.4274 8.48576C58.1507 8.92532 58.6904 9.50815 59.0493 10.2384L57.0657 10.8685C56.8307 10.461 56.5149 10.1424 56.1199 9.91293C55.7248 9.6848 55.2853 9.57074 54.804 9.57074C54.3964 9.57074 54.0153 9.65142 53.6634 9.81138C53.3114 9.97274 53.0054 10.1981 52.7453 10.4888C52.4852 10.7795 52.2821 11.1217 52.1333 11.5181C51.9844 11.9132 51.9107 12.3527 51.9107 12.834C51.9107 13.3153 51.9872 13.7396 52.143 14.1416C52.2974 14.5436 52.5074 14.8927 52.7731 15.189C53.0388 15.4853 53.3476 15.7176 53.6995 15.8845C54.0514 16.0514 54.4256 16.1349 54.8207 16.1349C55.0683 16.1349 55.3145 16.1015 55.5621 16.0333C55.8097 15.9652 56.035 15.8692 56.2395 15.7454C56.4426 15.6216 56.622 15.4797 56.7778 15.3197C56.9322 15.1598 57.0463 14.9859 57.12 14.8009L59.123 15.3949C58.8017 16.1237 58.2634 16.7205 57.5095 17.1837C56.7555 17.6469 55.8653 17.8792 54.8401 17.8792C54.0862 17.8792 53.4004 17.7429 52.7828 17.4716C52.1652 17.2004 51.6367 16.8318 51.1971 16.3686C50.7575 15.9054 50.4181 15.3712 50.1775 14.7647C49.9369 14.1597 49.8158 13.517 49.8158 12.8368L49.8172 12.834Z" fill="#12314F"></path><path d="M63.3895 17.8778C62.9193 17.8778 62.4839 17.7999 62.0819 17.6455C61.6799 17.4911 61.3336 17.2783 61.0442 17.0057C60.7535 16.7344 60.5254 16.4117 60.3585 16.0417C60.1916 15.6703 60.1081 15.2697 60.1081 14.8371C60.1081 14.3795 60.2069 13.9663 60.4044 13.5949C60.6019 13.2235 60.8829 12.9022 61.2473 12.631C61.6118 12.3597 62.0444 12.1497 62.5451 12.0008C63.0459 11.852 63.5995 11.7783 64.2046 11.7783C64.6622 11.7783 65.1129 11.8186 65.558 11.8993C66.0032 11.98 66.4052 12.0885 66.7626 12.2234V11.5557C66.7626 10.8394 66.5582 10.2802 66.1506 9.87818C65.743 9.47618 65.156 9.27587 64.3896 9.27587C63.8708 9.27587 63.3603 9.37185 62.8595 9.56381C62.3587 9.75577 61.8427 10.0298 61.3113 10.3887L60.6812 9.09087C61.9289 8.25071 63.2267 7.83062 64.5746 7.83062C65.9225 7.83062 66.9476 8.17142 67.689 8.85023C68.4305 9.53043 68.8019 10.5069 68.8019 11.7797V15.2836C68.8019 15.7162 68.9813 15.9388 69.3402 15.9513V17.6942C69.1426 17.7318 68.9729 17.7554 68.8297 17.7679C68.6878 17.7805 68.5487 17.786 68.4124 17.786C68.0159 17.786 67.7113 17.6873 67.4943 17.4897C67.2773 17.2922 67.1452 17.0391 67.0951 16.7302L67.0395 16.1182C66.6069 16.6871 66.0713 17.1225 65.4356 17.4257C64.7986 17.729 64.1156 17.8806 63.3867 17.8806L63.3895 17.8778ZM63.9459 16.3755C64.4397 16.3755 64.907 16.2865 65.3452 16.1071C65.7834 15.9276 66.127 15.6773 66.3746 15.3559C66.6347 15.1334 66.764 14.8983 66.764 14.6521V13.3724C66.4177 13.2361 66.0505 13.1317 65.661 13.0566C65.2715 12.9829 64.8917 12.9453 64.5203 12.9453C63.7915 12.9453 63.1947 13.1025 62.7315 13.4183C62.2683 13.734 62.036 14.1499 62.036 14.6702C62.036 15.1529 62.2155 15.5576 62.5743 15.8845C62.9332 16.2128 63.3895 16.3755 63.9459 16.3755Z" fill="#12314F"></path><path d="M76.7205 9.75572C75.929 9.78076 75.228 9.96298 74.6159 10.3024C74.0039 10.6418 73.5685 11.1272 73.3084 11.7574V17.69H71.2692V7.99471H73.1609V10.1647C73.4948 9.49699 73.9302 8.96285 74.4685 8.56085C75.0068 8.15885 75.5841 7.93907 76.2017 7.9029H76.5077C76.5884 7.9029 76.6593 7.90847 76.7205 7.92099V9.75711V9.75572Z" fill="#12314F"></path><path d="M82.1163 17.8778C81.3624 17.8778 80.6767 17.7443 80.059 17.4786C79.4401 17.2129 78.9129 16.8512 78.4733 16.3936C78.0338 15.936 77.6943 15.4046 77.4537 14.7995C77.2131 14.1944 77.092 13.5518 77.092 12.8716C77.092 12.1914 77.2131 11.546 77.4537 10.9339C77.6943 10.3219 78.0351 9.78495 78.4733 9.32036C78.9115 8.85716 79.4401 8.49271 80.059 8.22703C80.6767 7.96135 81.3694 7.82782 82.1358 7.82782C82.9023 7.82782 83.5727 7.96413 84.1848 8.23538C84.7968 8.50802 85.3184 8.86828 85.751 9.32036C86.1836 9.77244 86.5147 10.2968 86.7428 10.8964C86.9709 11.4959 87.0864 12.1232 87.0864 12.7784C87.0864 12.9272 87.0794 13.0663 87.0683 13.1957C87.0558 13.3251 87.0433 13.4335 87.0307 13.5198H79.262C79.2996 13.9524 79.4011 14.3419 79.568 14.6882C79.735 15.0346 79.9506 15.3337 80.2176 15.5868C80.4833 15.84 80.7865 16.0347 81.1259 16.171C81.4653 16.3074 81.8214 16.3755 82.1915 16.3755C82.4627 16.3755 82.7326 16.3421 82.9982 16.274C83.2639 16.2058 83.5087 16.1071 83.7299 15.9777C83.9525 15.8483 84.15 15.6898 84.3239 15.5048C84.4963 15.3197 84.6327 15.1153 84.7314 14.8927L86.4743 15.3935C86.1405 16.1224 85.5869 16.7191 84.8149 17.1823C84.0429 17.6455 83.1429 17.8778 82.1177 17.8778H82.1163ZM85.0639 12.1107C85.0263 11.7031 84.9248 11.3262 84.7579 10.9798C84.5909 10.6335 84.3781 10.34 84.118 10.0993C83.8579 9.85868 83.556 9.6695 83.2097 9.53318C82.8633 9.39687 82.4989 9.32871 82.1163 9.32871C81.7338 9.32871 81.3722 9.39687 81.0314 9.53318C80.692 9.6695 80.3915 9.85729 80.1328 10.0993C79.8727 10.34 79.6626 10.6335 79.5026 10.9798C79.3413 11.3262 79.2425 11.7031 79.2064 12.1107H85.0653H85.0639Z" fill="#12314F"></path><g clip-path="url(#clip0_627_1986)"><path d="M121.05 9.79972C120.951 9.57633 120.725 9.4269 120.475 9.4269H117.428C117.079 7.0894 116.005 4.95013 114.305 3.23399C112.209 1.14355 109.437 -5.34058e-05 106.49 -5.34058e-05C103.542 -5.34058e-05 100.745 1.14355 98.6721 3.23399C97.3989 4.50187 96.4749 6.04492 95.9252 7.71076L97.1211 6.51981L97.3737 6.26831L99.0227 4.62614L102.609 8.22264L103.107 8.72269C103.107 8.72269 103.114 8.71086 103.119 8.70494C103.867 7.63531 105.092 6.93849 106.491 6.93849C108.164 6.93849 109.612 7.95782 110.263 9.40027H107.466C107.216 9.40027 106.992 9.5497 106.891 9.77309C106.791 9.99648 106.84 10.2702 107.015 10.4448L109.878 13.306L113.959 17.3848L117.072 14.2735L120.903 10.4448C121.104 10.2953 121.153 10.0216 121.053 9.79824L121.05 9.79972Z" fill="url(#paint0_linear_627_1986)"></path><path d="M113.958 17.3858L109.877 13.307C109.872 13.3144 109.866 13.3233 109.86 13.3307C109.112 14.4003 107.887 15.0971 106.488 15.0971C104.815 15.0971 103.365 14.0778 102.716 12.6353H105.513C105.763 12.6353 105.987 12.4859 106.088 12.2625C106.188 12.0391 106.139 11.7654 105.963 11.5908L103.105 8.72369L102.607 8.22364L99.0211 4.62714L97.3721 6.26931L97.1195 6.52082L95.9236 7.71176L92.052 11.5657C91.8767 11.7403 91.8277 12.014 91.9272 12.2374C92.0268 12.4607 92.2511 12.6102 92.5022 12.6102H95.5492C95.8983 14.9477 96.9724 17.0869 98.6705 18.8031C100.768 20.892 103.54 22.0371 106.488 22.0371C109.435 22.0371 112.233 20.8935 114.305 18.8031C115.578 17.5352 116.503 15.9922 117.052 14.3263C117.058 14.31 117.063 14.2923 117.067 14.2745L113.955 17.3858H113.958Z" fill="url(#paint1_linear_627_1986)"></path></g><path d="M134.588 17.6917H132.549V12.2598C132.549 11.3696 132.392 10.7116 132.076 10.2846C131.76 9.85757 131.307 9.64475 130.713 9.64475C130.429 9.64475 130.144 9.70039 129.86 9.81167C129.577 9.92295 129.307 10.0801 129.054 10.2846C128.8 10.4891 128.574 10.7297 128.376 11.0079C128.179 11.2861 128.03 11.5922 127.931 11.926V17.6917H125.892V4.15725H127.931V9.94242C128.302 9.27474 128.806 8.7559 129.442 8.3845C130.079 8.0131 130.773 7.8281 131.527 7.8281C132.132 7.8281 132.63 7.9366 133.019 8.1522C133.409 8.3692 133.72 8.65575 133.955 9.01463C134.191 9.3735 134.355 9.7908 134.447 10.2665C134.54 10.7422 134.586 11.2458 134.586 11.7772V17.6917H134.588Z" fill="#12314F"></path><path d="M141.318 17.8779C140.552 17.8779 139.863 17.7416 139.251 17.4703C138.639 17.1991 138.118 16.8332 137.685 16.377C137.252 15.9193 136.919 15.3852 136.684 14.7732C136.448 14.1611 136.332 13.5213 136.332 12.8536C136.332 12.1859 136.448 11.546 136.684 10.9354C136.919 10.3234 137.255 9.78921 137.693 9.33157C138.132 8.87393 138.657 8.50949 139.269 8.23824C139.881 7.967 140.564 7.83068 141.318 7.83068C142.072 7.83068 142.755 7.967 143.367 8.23824C143.979 8.51088 144.504 8.87532 144.943 9.33157C145.381 9.78921 145.719 10.3234 145.953 10.9354C146.188 11.5474 146.305 12.1873 146.305 12.8536C146.305 13.5199 146.187 14.1611 145.953 14.7732C145.718 15.3852 145.381 15.9193 144.943 16.377C144.505 16.8346 143.979 17.1991 143.367 17.4703C142.755 17.7416 142.072 17.8779 141.318 17.8779ZM138.426 12.8717C138.426 13.3418 138.5 13.7744 138.649 14.1695C138.798 14.5645 139.001 14.9081 139.261 15.1988C139.521 15.4895 139.827 15.7177 140.179 15.8846C140.531 16.0515 140.912 16.135 141.32 16.135C141.727 16.135 142.108 16.0515 142.46 15.8846C142.812 15.7177 143.118 15.4854 143.378 15.1891C143.639 14.8928 143.842 14.5464 143.99 14.1514C144.139 13.7563 144.213 13.3237 144.213 12.8536C144.213 12.3834 144.139 11.9661 143.99 11.5655C143.842 11.1635 143.639 10.8144 143.378 10.5181C143.118 10.2218 142.812 9.98951 142.46 9.82259C142.108 9.65567 141.729 9.57221 141.32 9.57221C140.911 9.57221 140.551 9.65845 140.199 9.83233C139.847 10.0062 139.541 10.2399 139.281 10.5376C139.02 10.8352 138.815 11.183 138.659 11.585C138.504 11.987 138.426 12.4168 138.426 12.8731V12.8717Z" fill="#12314F"></path><path d="M162.955 17.6915H160.916V12.2596C160.916 11.3582 160.767 10.6961 160.471 10.276C160.175 9.85596 159.742 9.64592 159.173 9.64592C158.604 9.64592 158.063 9.85874 157.587 10.2858C157.112 10.7128 156.768 11.265 156.558 11.9452V17.6929H154.519V12.261C154.519 11.3471 154.37 10.6822 154.074 10.2677C153.777 9.85318 153.35 9.64731 152.794 9.64731C152.237 9.64731 151.681 9.85735 151.2 10.2774C150.719 10.6975 150.372 11.2484 150.162 11.9272V17.6929H148.123V7.9948H149.977V9.9422C150.36 9.262 150.865 8.74038 151.488 8.37594C152.112 8.01149 152.826 7.82927 153.628 7.82927C154.431 7.82927 155.065 8.03931 155.529 8.4594C155.992 8.87948 156.28 9.40528 156.391 10.0354C156.799 9.31904 157.312 8.77237 157.929 8.39402C158.547 8.01706 159.252 7.82927 160.044 7.82927C160.613 7.82927 161.086 7.93777 161.463 8.15338C161.84 8.37037 162.14 8.65692 162.361 9.0158C162.584 9.37468 162.738 9.79198 162.824 10.2677C162.911 10.7434 162.954 11.247 162.954 11.7783V17.6929L162.955 17.6915Z" fill="#12314F"></path><path d="M169.704 17.8779C168.951 17.8779 168.265 17.7443 167.646 17.4786C167.028 17.213 166.5 16.8513 166.06 16.3937C165.62 15.936 165.281 15.4047 165.04 14.7996C164.8 14.1945 164.679 13.5518 164.679 12.8716C164.679 12.1914 164.8 11.546 165.04 10.934C165.281 10.3219 165.622 9.78501 166.06 9.32041C166.498 8.85721 167.027 8.49277 167.646 8.22709C168.263 7.96141 168.956 7.82787 169.723 7.82787C170.489 7.82787 171.159 7.96419 171.771 8.23543C172.383 8.50807 172.905 8.86834 173.338 9.32041C173.77 9.77249 174.101 10.2969 174.33 10.8964C174.558 11.4959 174.672 12.1233 174.672 12.7784C174.672 12.9273 174.666 13.0664 174.654 13.1957C174.641 13.3251 174.629 13.4336 174.616 13.5198H166.847C166.885 13.9524 166.986 14.3419 167.153 14.6883C167.32 15.0346 167.536 15.3337 167.803 15.5869C168.069 15.84 168.372 16.0348 168.711 16.1711C169.051 16.3074 169.407 16.3756 169.778 16.3756C170.049 16.3756 170.319 16.3422 170.585 16.274C170.851 16.2059 171.095 16.1071 171.318 15.9777C171.541 15.8484 171.738 15.6898 171.912 15.5048C172.084 15.3198 172.221 15.1153 172.32 14.8928L174.062 15.3935C173.729 16.1224 173.175 16.7191 172.403 17.1824C171.631 17.6456 170.731 17.8779 169.706 17.8779H169.704ZM172.652 12.1108C172.614 11.7032 172.513 11.3262 172.346 10.9799C172.179 10.6335 171.966 10.34 171.706 10.0994C171.446 9.85873 171.144 9.66956 170.798 9.53324C170.451 9.39692 170.087 9.32876 169.704 9.32876C169.322 9.32876 168.959 9.39692 168.619 9.53324C168.28 9.66956 167.98 9.85734 167.721 10.0994C167.461 10.34 167.251 10.6335 167.091 10.9799C166.929 11.3262 166.831 11.7032 166.794 12.1108H172.653H172.652Z" fill="#12314F"></path><path d="M181.57 17.8779C180.828 17.8779 180.158 17.7013 179.558 17.3494C178.959 16.9974 178.486 16.5245 178.139 15.9305V17.6916H176.341V4.15711H178.38V9.83101C178.763 9.2134 179.243 8.72516 179.817 8.36628C180.391 8.0074 181.069 7.82796 181.848 7.82796C182.49 7.82796 183.078 7.96706 183.609 8.24526C184.14 8.52346 184.595 8.89486 184.972 9.35807C185.349 9.82127 185.64 10.3596 185.843 10.9716C186.046 11.5837 186.149 12.2235 186.149 12.8912C186.149 13.5589 186.032 14.2321 185.797 14.8386C185.562 15.4451 185.241 15.9723 184.833 16.4244C184.425 16.8764 183.94 17.2311 183.378 17.4899C182.816 17.75 182.212 17.8793 181.57 17.8793V17.8779ZM181.033 16.135C181.478 16.135 181.885 16.046 182.257 15.8666C182.628 15.6871 182.945 15.4493 183.212 15.153C183.478 14.8567 183.685 14.5131 183.833 14.1236C183.98 13.7342 184.055 13.3238 184.055 12.8912C184.055 12.4586 183.984 12.0413 183.843 11.6393C183.701 11.2373 183.502 10.8854 183.249 10.5821C182.995 10.2789 182.692 10.0355 182.34 9.85048C181.988 9.66548 181.602 9.57228 181.182 9.57228C180.551 9.57228 179.992 9.77676 179.504 10.1843C179.016 10.5919 178.642 11.0871 178.383 11.6671V14.2252C178.457 14.5089 178.587 14.7663 178.772 14.9944C178.957 15.2239 179.174 15.4242 179.422 15.5967C179.67 15.7706 179.935 15.9027 180.219 15.9959C180.503 16.0891 180.775 16.135 181.036 16.135H181.033Z" fill="#12314F"></path><path d="M190.562 17.8779C190.092 17.8779 189.657 17.8 189.255 17.6456C188.853 17.4912 188.507 17.2784 188.217 17.0057C187.927 16.7345 187.698 16.4118 187.531 16.0418C187.365 15.6704 187.281 15.2698 187.281 14.8371C187.281 14.3795 187.38 13.9664 187.577 13.595C187.775 13.2236 188.056 12.9023 188.42 12.631C188.785 12.3598 189.217 12.1497 189.718 12.0009C190.219 11.8521 190.773 11.7783 191.378 11.7783C191.835 11.7783 192.286 11.8187 192.731 11.8994C193.176 11.98 193.578 12.0885 193.936 12.2235V11.5558C193.936 10.8394 193.731 10.2802 193.324 9.87823C192.916 9.47623 192.329 9.27593 191.563 9.27593C191.044 9.27593 190.533 9.37191 190.033 9.56386C189.532 9.75582 189.016 10.0298 188.484 10.3887L187.854 9.09092C189.102 8.25076 190.4 7.83068 191.748 7.83068C193.095 7.83068 194.121 8.17147 194.862 8.85028C195.603 9.53048 195.975 10.507 195.975 11.7797V15.2837C195.975 15.7163 196.154 15.9388 196.513 15.9513V17.6943C196.316 17.7318 196.146 17.7555 196.003 17.768C195.861 17.7805 195.722 17.7861 195.585 17.7861C195.189 17.7861 194.884 17.6873 194.667 17.4898C194.45 17.2923 194.318 17.0391 194.268 16.7303L194.212 16.1183C193.78 16.6872 193.244 17.1226 192.609 17.4258C191.972 17.729 191.289 17.8807 190.56 17.8807L190.562 17.8779ZM191.119 16.3756C191.613 16.3756 192.08 16.2866 192.518 16.1071C192.956 15.9277 193.3 15.6773 193.548 15.356C193.808 15.1334 193.937 14.8984 193.937 14.6521V13.3724C193.591 13.2361 193.223 13.1318 192.834 13.0567C192.444 12.9829 192.065 12.9454 191.693 12.9454C190.964 12.9454 190.368 13.1026 189.905 13.4183C189.441 13.7341 189.209 14.15 189.209 14.6702C189.209 15.1529 189.388 15.5577 189.747 15.8846C190.106 16.2128 190.562 16.3756 191.119 16.3756Z" fill="#12314F"></path><path d="M201.964 17.8779C201.185 17.8779 200.409 17.7513 199.637 17.4981C198.865 17.2449 198.2 16.8833 197.644 16.4131L198.459 15.1153C199.041 15.5354 199.615 15.8539 200.184 16.0696C200.753 16.2865 201.333 16.3937 201.927 16.3937C202.521 16.3937 203.012 16.2768 203.364 16.0417C203.716 15.8067 203.892 15.4728 203.892 15.0402C203.892 14.6326 203.695 14.3364 203.298 14.15C202.903 13.965 202.284 13.7605 201.444 13.5379C200.839 13.378 200.319 13.2222 199.886 13.0747C199.454 12.9259 199.102 12.7534 198.829 12.5559C198.557 12.3584 198.359 12.1288 198.235 11.8701C198.111 11.61 198.05 11.2956 198.05 10.9242C198.05 10.4304 198.146 9.99088 198.338 9.60835C198.53 9.22583 198.796 8.90033 199.135 8.63465C199.475 8.36897 199.874 8.16866 200.331 8.03235C200.789 7.89603 201.283 7.82787 201.814 7.82787C202.543 7.82787 203.223 7.93915 203.853 8.16171C204.484 8.38427 205.047 8.70559 205.541 9.12567L204.669 10.3498C203.766 9.63339 202.807 9.27451 201.795 9.27451C201.276 9.27451 200.841 9.38301 200.487 9.59861C200.135 9.81561 199.959 10.1578 199.959 10.628C199.959 10.8255 199.996 10.9924 200.07 11.1287C200.144 11.265 200.265 11.3819 200.432 11.4806C200.599 11.5794 200.814 11.6698 201.081 11.7491C201.347 11.8298 201.678 11.9188 202.073 12.0176C202.728 12.1789 203.293 12.3389 203.77 12.5002C204.246 12.6616 204.638 12.8494 204.947 13.0664C205.256 13.2834 205.485 13.5365 205.633 13.8259C205.781 14.1166 205.855 14.4657 205.855 14.8733C205.855 15.7997 205.506 16.5328 204.808 17.0697C204.109 17.608 203.161 17.8765 201.962 17.8765L201.964 17.8779Z" fill="#12314F"></path><path d="M212.031 17.8779C211.277 17.8779 210.592 17.7443 209.973 17.4786C209.354 17.213 208.827 16.8513 208.387 16.3937C207.949 15.936 207.608 15.4047 207.367 14.7996C207.127 14.1945 207.006 13.5518 207.006 12.8716C207.006 12.1914 207.127 11.546 207.367 10.934C207.608 10.3219 207.949 9.78501 208.387 9.32041C208.825 8.85582 209.354 8.49277 209.973 8.22709C210.59 7.96141 211.283 7.82787 212.049 7.82787C212.816 7.82787 213.486 7.96419 214.098 8.23543C214.71 8.50807 215.232 8.86834 215.665 9.32041C216.097 9.77249 216.428 10.2969 216.656 10.8964C216.885 11.4959 217 12.1233 217 12.7784C217 12.9273 216.993 13.0664 216.982 13.1957C216.969 13.3251 216.957 13.4336 216.944 13.5198H209.176C209.213 13.9524 209.315 14.3419 209.482 14.6883C209.649 15.0346 209.864 15.3337 210.13 15.5869C210.396 15.84 210.699 16.0348 211.038 16.1711C211.378 16.3074 211.734 16.3756 212.105 16.3756C212.376 16.3756 212.646 16.3422 212.912 16.274C213.178 16.2059 213.422 16.1071 213.645 15.9777C213.868 15.8484 214.065 15.6898 214.238 15.5048C214.41 15.3198 214.546 15.1153 214.645 14.8928L216.388 15.3935C216.054 16.1224 215.501 16.7191 214.729 17.1824C213.957 17.6456 213.057 17.8779 212.031 17.8779ZM214.98 12.1108C214.943 11.7032 214.841 11.3262 214.674 10.9799C214.507 10.6335 214.295 10.34 214.034 10.0994C213.774 9.85873 213.472 9.66956 213.126 9.53324C212.78 9.39692 212.415 9.32876 212.033 9.32876C211.65 9.32876 211.289 9.39692 210.948 9.53324C210.607 9.66956 210.308 9.85734 210.049 10.0994C209.789 10.34 209.579 10.6335 209.419 10.9799C209.258 11.3262 209.159 11.7032 209.123 12.1108H214.982H214.98Z" fill="#12314F"></path><defs><linearGradient id="paint0_linear_627_1986" x1="114.43" y1="14.167" x2="97.8501" y2="10.2967" gradientUnits="userSpaceOnUse"><stop stop-color="#439BFF"></stop><stop offset="1" stop-color="#0067DB"></stop></linearGradient><linearGradient id="paint1_linear_627_1986" x1="94.8944" y1="11.9628" x2="116.959" y2="15.9668" gradientUnits="userSpaceOnUse"><stop stop-color="white"></stop><stop offset="1" stop-color="#ACD3FF"></stop></linearGradient><clipPath id="clip0_627_1986"><rect width="29.2239" height="22.0377" fill="#12314F" transform="translate(91.8771)"></rect></clipPath></defs></svg>