<?xml version="1.0" encoding="UTF-8"?>
<svg xmlns="http://www.w3.org/2000/svg" id="Layer_2" viewBox="0 0 727.78 122.76">
  <defs>
    <style>.cls-1{fill:#232323;}.cls-2{fill:#ee5c29;}</style>
  </defs>
  <g id="Layer_1-2">
    <g id="b">
      <path class="cls-1" d="m333.72,60.9v9.83h-29.47v-9.83h29.47Zm-144.08-19.45c0,7.48-2.34,13.67-6.77,17.88-5.72,5.71-14.7,8.42-24.85,8.42-2.35.05-4.69-.11-7.01-.48v29.65h-14.23V19.27c7.25-1.19,14.59-1.74,21.93-1.63,10.5,0,18.23,2.22,23.24,6.41,5.04,4.36,7.86,10.74,7.7,17.4h0Zm-14.36.59c0-8.75-6.07-13.43-15.99-13.43-2.78-.06-5.56.18-8.29.7v26.62c2.3.48,4.66.68,7.01.59,10.73,0,17.26-5.26,17.26-14.48h.01Zm53.22-3.27c1.14,0,2.28.11,3.39.35v13.54c-1.38-.3-2.79-.45-4.21-.46-6.89,0-11.56,4.43-12.83,10.86-.3,1.46-.46,2.94-.48,4.43v29.47h-14.35v-38.57c0-7.7-.13-13.19-.48-18.34h12.5l.46,10.86h.46c2.8-8.05,9.45-12.14,15.53-12.14h0Zm66.07,29.19c0,20.91-14.71,30.25-29.18,30.25-16.1,0-28.47-11.1-28.47-29.31s12.24-30.13,29.45-30.13,28.2,11.91,28.2,29.19h0Zm-14.82.35c0-8.87-3.97-19.03-13.77-19.03s-14.25,9.81-14.25,19.27c0,10.97,5.37,19.27,14.12,19.27,8.18,0,13.9-8.06,13.9-19.51Zm-167.54-11.85h0c0,31.2-25.13,56.47-56.12,56.47S0,87.63,0,56.45C0,25.27,25.13,0,56.12,0c30.96.05,56.05,25.3,56.09,56.47h0Zm-14.99,0c0-22.85-18.4-41.36-41.1-41.36S15.02,33.62,15.02,56.46s18.4,41.36,41.1,41.36c22.69-.02,41.08-18.53,41.1-41.36Z"></path>
      <path class="cls-2" d="m360.7,37.64c0-7.49,3.27-13.56,13.31-13.56,4.35-.05,8.65,1,12.5,3.04l3.14-10.88c-3.27-2.11-10.03-3.63-15.64-3.63-16.93,0-27.55,9.36-27.55,24.67v2.68h-7.7v10.76h7.7v46.18h14.36v-46.18h19.37v46.18h14.48v-56.93h-33.98v-2.33h.01Zm77.88,12.28c3.74-.07,7.45.68,10.86,2.22l2.57-10.76c-4.41-1.81-9.13-2.72-13.89-2.68-19.96,0-31.63,13.34-31.63,30.41s11.54,29.02,29.29,29.02c5.51.1,10.98-.91,16.1-2.95l-1.91-10.64c-3.6,1.52-7.48,2.28-11.39,2.22-9.81,0-17.39-6.66-17.39-18.35-.11-10.41,6.42-18.48,17.39-18.48h0Zm31.5-33.57c-4.45-.19-8.21,3.28-8.4,7.73v.56c.22,4.17,3.77,7.37,7.93,7.15,5.02,0,8.18-3.39,8.18-7.71-.17-4.2-3.53-7.56-7.72-7.73h.01Zm-7.58,80.57h14.48v-56.95h-14.48v56.95Zm54.06-58.2c-18.22,0-27.79,14.85-27.79,30.63,0,17.42,10.86,28.76,29.3,28.76,6.78.09,13.51-1.11,19.85-3.53l-2.1-9.95c-5.05,1.85-10.4,2.73-15.77,2.59-9.09,0-17.16-4.45-17.51-14.74l38.06.03c.33-2.01.49-4.05.46-6.08,0-12.5-6.06-27.71-24.51-27.71h.01Zm-14.01,23.7c.56-5.85,4.32-13.91,13.19-13.91,9.58,0,11.91,8.66,11.8,13.91h-24.99Zm81.39-23.75c-7.36-.21-14.26,3.54-18.1,9.83h-.35l-.7-8.54h-12.62c.35,4.92.46,10.41.46,16.96v40h14.46v-33.44c-.05-1.58.14-3.16.59-4.68,1.55-4.93,6.06-8.32,11.22-8.43,7.81,0,10.86,6.2,10.86,14.39v32.15h14.36v-33.81c0-18-10.27-24.43-20.19-24.43h0Zm63.95,11.27c3.74-.07,7.45.68,10.86,2.22l2.57-10.76c-4.41-1.81-9.13-2.72-13.89-2.68-19.96,0-31.63,13.33-31.63,30.41s11.56,28.99,29.3,28.99c5.51.1,10.98-.91,16.1-2.95l-1.98-10.61c-3.58,1.52-7.44,2.27-11.33,2.22-9.81,0-17.39-6.66-17.39-18.35-.11-10.41,6.42-18.48,17.39-18.48h0Zm60.47-9.99l-8.87,30.41c-1.05,3.75-2.1,7.97-3.04,11.24h-.35c-.81-3.27-1.98-7.6-3.14-11.11l-10.28-30.52h-15.78l20.78,52.27c.49.86.77,1.82.81,2.81-.1.92-.42,1.8-.93,2.57-1.85,3.59-4.53,6.68-7.83,9.01-2.53,1.85-5.38,3.2-8.42,3.98l3.27,12.15c5.64-.91,10.88-3.47,15.07-7.36,6.76-5.84,12.02-15.32,19.84-36.6l14.31-38.84h-15.44ZM82.71,56.09c0,14.73-11.93,26.66-26.65,26.66s-26.65-11.94-26.65-26.66,11.93-26.66,26.65-26.66,26.65,11.94,26.65,26.66Zm645.07,53.99c0,4.82-3.78,8.6-8.71,8.6s-8.76-3.78-8.76-8.6,3.89-8.5,8.76-8.5,8.71,3.78,8.71,8.5Zm-15.29,0c0,3.78,2.8,6.79,6.63,6.79s6.48-3.01,6.48-6.74-2.75-6.84-6.53-6.84-6.58,3.06-6.58,6.79h0Zm5.24,4.46h-1.97v-8.5c.78-.16,1.87-.26,3.27-.26,1.61,0,2.33.26,2.96.62.47.36.83,1.04.83,1.87,0,.93-.73,1.66-1.76,1.97v.1c.83.31,1.3.93,1.56,2.07.26,1.3.41,1.81.62,2.12h-2.13c-.26-.31-.41-1.09-.67-2.07-.16-.93-.67-1.35-1.76-1.35h-.93v3.42h-.02Zm.05-4.82h.93c1.09,0,1.97-.36,1.97-1.24,0-.78-.57-1.3-1.81-1.3-.52,0-.88.05-1.09.1v2.44h0Z"></path>
    </g>
  </g>
</svg>
