<?xml version="1.0" encoding="utf-8"?>
<!-- Generator: Adobe Illustrator 25.2.1, SVG Export Plug-In . SVG Version: 6.00 Build 0)  -->
<svg version="1.1" id="Capa_1" xmlns="http://www.w3.org/2000/svg" xmlns:xlink="http://www.w3.org/1999/xlink" x="0px" y="0px"
	 viewBox="0 0 641.9 188" style="enable-background:new 0 0 641.9 188;" xml:space="preserve">
<style type="text/css">
	.st0{fill:#999999;}
</style>
<path class="st0" d="M159.2,147.1c0-3.7,2-10.1,10.1-10.1H221h7.6v-23.6h-7.5h-88.7c0,5.6,0.1,14.5,0.1,32.8s11.3,35.1,29.1,35.1
	h55.8c23.4,0,23.8-23.7,23.8-23.7h-71.4C161.6,157.7,159.2,150.7,159.2,147.1"/>
<path class="st0" d="M96,113.5H62.2H39.8c-8,0-10.1-6.4-10.1-10.1s2.5-10.6,10.6-10.6h74.4c0,0-0.5-23.7-23.8-23.7H32
	c-17.8,0-29.1,16.8-29.1,35.1S11,137,28.4,137h33.9h22.4c8.1,0,10.1,6.4,10.1,10.1c0,3.6-2.4,10.6-10.6,10.6H6
	c0,0,0.5,23.7,23.8,23.7h62.6c17.8,0,29.1-16.8,29.1-35.1C121.5,127.9,113.5,113.5,96,113.5"/>
<path class="st0" d="M572.6,146.2c0,0.3,0,0.6,0,0.9c0,0.2,0,0.6,0,0.9V146.2z"/>
<path class="st0" d="M578.1,157.7c-7.5,0-10.2-5.9-10.5-9.7c0-0.3,0-0.6,0-0.9c0-0.3,0-0.6,0-0.9V92.6c0-23-26.8-23.5-26.8-23.5
	v77.3c0,1.5,0.1,2.9,0.2,4.4c1.7,16.5,12.5,30.7,28.8,30.7h48.3c23.3,0,23.8-23.7,23.8-23.7L578.1,157.7L578.1,157.7z"/>
<path class="st0" d="M439.4,147.1c0-3.7,2-10.1,10.1-10.1H510h7.6v-23.6h-7.5h-97.5c0,5.6,0.1,14.5,0.1,32.8s11.3,35.1,29.1,35.1
	h64.6c23.3,0,23.8-23.7,23.8-23.7H450C441.9,157.7,439.4,150.7,439.4,147.1"/>
<path class="st0" d="M506.4,69.1H395l-66.9,81.4l-70-81.4h-17.6h-84.2c-23.3,0-23.8,23.7-23.8,23.7h108.2l70.4,83.6
	c0,0,10.1,11.5,17,11.5c7,0,16.1-11,16.1-11l69-84.2h81.1c0.6,0,1.2,0,1.7,0.1h34.2C530.2,91.9,529.8,69.1,506.4,69.1"/>
<path class="st0" d="M55,24.9c-0.1,7.7-0.7,14.2-5.4,20.7C44.5,52.8,36.7,55.9,28,55.9c-16.5,0-28-11.2-28-27.7
	C0,11.2,11.6,0,28.5,0c10.8,0,19.1,4.9,23.7,14.7l-12.9,5.4c-1.9-5-5.8-8.3-11.3-8.3c-9,0-13.6,8.6-13.6,16.6
	c0,8.1,4.9,16.4,13.8,16.4c5.9,0,10.4-3.1,11-9.1H27.9V24.9H55z"/>
<path class="st0" d="M104.9,54.2h-17L75,34h-0.1v20.2H61.2V1.7h20.4c10.4,0,18.2,4.9,18.2,16.1c0,7.2-4,13.5-11.5,14.8L104.9,54.2z
	 M74.9,25.3h1.3c4.4,0,9.5-0.8,9.5-6.5s-5-6.5-9.5-6.5h-1.3V25.3z"/>
<path class="st0" d="M154.1,1.7v29.5c0,6.7-0.3,13.4-5.5,18.5c-4.4,4.3-11.3,5.8-17.4,5.8c-6.1,0-13-1.5-17.4-5.8
	c-5.2-5.1-5.5-11.8-5.5-18.5V1.7h13.6v27.6c0,6.8,0.5,14.3,9.2,14.3c8.8,0,9.2-7.5,9.2-14.3V1.7H154.1z"/>
<path class="st0" d="M162.7,1.7h20.9c11.3,0,19.1,5.2,19.1,17.3c0,12.4-6.7,17.8-18.6,17.8h-7.7v17.4h-13.6L162.7,1.7L162.7,1.7z
	 M176.3,25.8h2.3c4.9,0,9.8,0,9.8-6.4c0-6.6-4.5-6.7-9.8-6.7h-2.3V25.8z"/>
<path class="st0" d="M264.1,27c0,17-12.2,28.9-29,28.9S206,44,206,27c0-15.9,13.9-27,29-27S264.1,11.1,264.1,27 M220.2,27.1
	c0,9,6.7,15.7,14.8,15.7s14.8-6.6,14.8-15.7c0-7.2-6.7-13.8-14.8-13.8C226.9,13.2,220.2,19.8,220.2,27.1"/>
</svg>
