<?xml version="1.0" encoding="UTF-8"?>
<svg id="titleist-performance-institute-v-light" xmlns="http://www.w3.org/2000/svg" viewBox="0 0 500 431">
  <path fill="#7E8890" d="m306.56,298.91c-.26,2.33-3.12,3.14-5.05.67-.28-.35-.82-1.43-.83-1.42,1.23-1.92,2.56-4.44,3.71-6.64,1.54,2.08,2.47,4.6,2.17,7.39m-40.44-2.81s-1.06-2.53.99-6.7c2.66-5.44,5.88-2.68,3.3,2.44.04-.09-1.68,3.18-4.28,4.26h0Zm-20.93-11.9c1.18-4.2,4.08-9,7.15-11.8.67-.6,1.71-1.26,2.61-1.34.98-.09,1.58.48,1.79,1.27.21.79-.79,3.46-.84,3.57-2.86,5.87-7.94,12.26-11.84,15.07,0-1.92.59-4.84,1.14-6.78m96.74-.83c-4.22-.05-6.31-.16-10.58-.15h-.02c.19-.46.67-1.69,1.12-2.85.71-1.81-3.37-4.97-4.58-2.54-1.58,3.17-1.25,2.49-2.63,5.44,0,0-1.21.02-4.9,0-2.08-.01-3.31,4.94-.57,4.96,1.88.01,2.7,0,2.7,0-1.82,4.22-5.83,10.87-10.32,11.49,0-1.17.42-3.43-.92-7.41-2.02-6-2.52-4.58-4.44-10.81-.28-.89-3.4-1.23-3.95.07-1.1,2.61-2.01,6.79-4.41,10.22-1.42,2.02-3.12,6.45-7.8,8.63-2.68,1.25-4.41-.14-4.58-2.11-.26-2.86,3.54-10.6,4.49-13.64.51-1.62-1.78-2.36-4.09-1.53-.54.19-1.01.61-1.52,1.77-2.4,5.52-3.67,11.84-6.17,14.02-2.99,2.62-8.29,3.26-10.22.79,6.59-3.85,7.8-10.12,7.8-10.12.3-1.99-.22-5.35-2.02-6.69-3.01-2.22-6.73-.97-9.08,1.15-3.81,3.43-5.33,8.92-4.35,13.8.03-.04-3.35,3.99-8.14,3.77-2.99-.14-6.54-1.5-7.69-4.94,6.46-4.71,14.43-13.46,16.43-22.27.42-1.84.2-4.23-.76-5.97-.52-.96-1.21-1.84-2.25-2.27-2.6-1.08-5.72-.56-8,1.26-1.66,1.32-12.8,10.43-11.63,27.32-6.16,4.28-12.21,7.92-16.29,7.01-.98-.22-5.08-1.85-2.56-6.25.86-1.51,5.55-9.47,6.33-10.52,0,0,3.94.03,6.23-.03,2.29-.06,3.94-4.23,2.13-4.32-1.11-.06-5.75-.07-5.75-.07,0,0,.87-2.18,1.15-2.8.7-1.56-3.76-2.78-5.13-.67-1.21,1.87-1.45,2.59-2.1,3.63,0,0-1.64,0-3.85.01-2.59,0-3.91,4.52-1.88,4.54,1.14,0,2.79,0,2.8,0,.01,0-.81,1.53-1.08,1.97-2.01,3.26-3.74,6.29-6.1,9.34-1.08,1.4-2.37,2.43-3.76,3.33-1.09.58-8.01,4.18-8.36-.76-.21-2.97,3.84-7.66,4.84-9.69.8-1.63,1.72-2.81-.28-3.46-1.43-.46-3.15-.53-3.98.82-1.59,2.61-2.94,5-4.77,7.37-3.31,4.3-9.15,7.08-13.98,8.86-1.73.64,1.53,3.19,1.67,3.34,1.69,1.05,4.73-.61,4.73-.61,2.85-1.17,5.05-2.79,6.96-4.13.37.82.96,4.26,5.42,5.01,7.94,1.33,13.54-4.64,13.47-4.78,0,.01.05-.15.06-.14,7.15,12.31,25.01-1.38,25.9-1.8.34.41,2.68,4.2,6.61,5.8h0c8.79,3.64,15.87-3.56,16.28-3.18,5.4,4.98,13.55,5.14,18.66,0,0-.01.03.04.75.84,6.17,6.82,14.28-1.22,14.27-1.21,5.39,7.58,10.12,3.91,11.44,2.78,2.28.07,4.7-.15,6.8-1.09,1.34-.6,2.19-1.11,3.15-1.75,1.63,2.64,4.17,4.33,7.34,4.6,3.24.27,5.23.08,8.75-2.53,2.25-1.67,1.98-4.64.48-5.29-1.49-.64-3.17,1.89-5.67,2.51-1.39.34-2.98.65-4.82-.44-1.09-.64-1.81-1.77-.84-4.44l.19-.49c.72-2.25,4.45-7.81,4.45-7.81,5.03-.11,6.74.04,12.81,0,2.39-.02,3.62-4.87.59-4.91m-157.79,23.06s-.03,0-.04-.01c.05.03.05.03.04.01m7.24-34.14c-.61.38-1,.76-1.39,1.31-6.64,9.46-11.96,17.47-19.3,26.9-3.57,4.59-5.2,6.07-7.54,7.07-1.33.58-6.02,2.08-9.51-.73-2.6-2.1-2.59-3.95-3.9-4.51-1.63-.7-4.04.62-3.67,2.27.39,1.75,2.16,5.96,7.7,8.14,4.5,1.76,10.59.6,14.44-2.11,1.09-.77,4.77-4.36,6.61-6.82,7.98-10.63,19.62-27.84,21.38-30.05.88-2.05-3.12-2.54-4.83-1.47m16.88,5.36c-1.91.57-2.77,2.47-2.01,4.25.44,1.03,1.22,1.47,2.27,1.68,1.73.36,3.12-.95,3.47-2.44.51-2.14-1.57-4.14-3.74-3.49m-29.04.41c1.39-.64,2.02-2.43,1.3-3.97-.2-.42-.65-.9-1.42-.84-4.1.26-7.25,2.43-11.7,1.62-1.38-.25-1.99-1.3-1.25-2.79,1.8-3.62,10.3-6.04,16.8-5.91,20.26.42,31.78,1.55,40.79.52,5.33-.61,7.02-1.74,8.72-2.71.59-.34,1.46-1.02,2.1-2.32.76-1.54-.5-5.03-2.73-3.27-5,5.45-21.39,3.23-35.48,3.12-4.67-.04-7.12-.21-13.42-.33-10.42-.21-24.08,4.89-22.5,13.67,1.99,7.02,12.79,5.97,18.78,3.22m111.68,1.76c1.73.36,3.11-.95,3.47-2.44.51-2.15-1.57-4.14-3.74-3.49-1.91.57-2.76,2.47-2.01,4.25.44,1.03,1.22,1.46,2.28,1.68m55.78-4.18c-.18-.1-.47-.15-.87-.15h-.61v1.43h.64c.3,0,.53-.03.68-.09.28-.11.42-.31.42-.62,0-.29-.09-.48-.27-.58m-.76-.63c.5,0,.87.05,1.1.14.42.17.62.51.62,1,0,.36-.13.62-.39.78-.14.09-.34.15-.58.2.31.05.55.18.7.39.14.21.22.42.22.62v.29c0,.09,0,.19,0,.3,0,.11.02.18.03.21l.02.05h-.66s0-.03,0-.04c0-.01,0-.03-.01-.04v-.13s-.01-.32-.01-.32c0-.46-.13-.77-.38-.92-.15-.08-.42-.12-.8-.12h-.57v1.57h-.69v-3.98h1.41Zm-2.16-.21c-.61.61-.92,1.35-.92,2.21s.31,1.61.91,2.22c.61.62,1.36.92,2.23.92s1.62-.31,2.23-.92c.61-.61.92-1.35.92-2.22s-.31-1.6-.92-2.21c-.62-.61-1.36-.92-2.23-.92s-1.61.31-2.23.92m4.81,4.78c-.71.71-1.57,1.06-2.59,1.06s-1.87-.35-2.59-1.06c-.71-.71-1.06-1.57-1.06-2.57s.36-1.85,1.07-2.56c.71-.7,1.57-1.05,2.58-1.05s1.87.35,2.59,1.05c.71.71,1.07,1.56,1.07,2.56s-.36,1.86-1.07,2.57m-308.52,49.26h20.42c1.78,0,3.24.22,4.39.64s2.05,1.01,2.7,1.75,1.11,1.63,1.37,2.65c.26,1.02.39,2.13.39,3.32v2.1c0,.92-.11,1.84-.34,2.77s-.6,1.76-1.13,2.51c-.53.76-1.23,1.37-2.11,1.84s-1.98.71-3.31.71h-14.89v6.15h-7.5v-24.44Zm7.5,12.22h11.64c.88,0,1.5-.25,1.87-.76.37-.5.56-1.12.56-1.84v-.94c0-.83-.22-1.48-.67-1.93s-1.25-.67-2.39-.67h-11.01v6.15Zm29.2-12.22h26.74v5.67h-19.24v3.91h18.23v5.07h-18.23v3.91h19.68v5.88h-27.18v-24.44Zm35.08,0h22.62c1.44,0,2.63.18,3.58.52.95.35,1.69.84,2.25,1.47.55.63.94,1.39,1.16,2.28.22.89.34,1.89.34,2.99v1.55c0,.81-.05,1.54-.17,2.2s-.32,1.22-.62,1.72c-.31.49-.73.92-1.29,1.27-.55.35-1.25.62-2.11.83v.07c.56.11,1.09.26,1.59.45.49.19.93.49,1.3.9s.66.93.88,1.57.32,1.47.32,2.48v4.15h-7.5v-2.94c0-1.28-.22-2.17-.66-2.67-.44-.49-1.24-.74-2.41-.74h-11.78v6.35h-7.5v-24.44Zm7.5,12.02h12.39c1.01,0,1.73-.21,2.14-.63.42-.41.63-1.06.63-1.94v-.81c0-1.08-.28-1.78-.83-2.09-.55-.31-1.42-.47-2.62-.47h-11.71v5.94Zm30.89-12.02h25.52v5.88h-18.02v4.56h17.18v5.67h-17.18v8.34h-7.5v-24.44Zm32.88,8.58c0-1.78.24-3.24.73-4.39.48-1.15,1.19-2.05,2.12-2.72.94-.66,2.07-1.12,3.39-1.37,1.33-.25,2.83-.37,4.52-.37h12.02c1.69,0,3.19.13,4.52.37,1.33.25,2.46.7,3.39,1.37.93.67,1.64,1.57,2.12,2.72.49,1.15.73,2.61.73,4.39v7.29c0,1.8-.24,3.27-.73,4.41-.48,1.13-1.19,2.04-2.12,2.7-.94.67-2.07,1.12-3.39,1.37-1.33.25-2.83.37-4.52.37h-12.02c-1.69,0-3.19-.13-4.52-.37-1.33-.24-2.46-.7-3.39-1.37-.93-.66-1.64-1.57-2.12-2.7-.49-1.14-.73-2.61-.73-4.41v-7.29Zm7.69,4.96c0,.88.06,1.63.17,2.26s.32,1.14.64,1.52c.31.38.75.66,1.31.84s1.28.27,2.16.27h9.59c.88,0,1.6-.09,2.16-.27s1-.46,1.31-.84.53-.89.64-1.52.17-1.39.17-2.26v-2.63c0-.76-.06-1.45-.18-2.04-.13-.6-.36-1.11-.69-1.54s-.81-.76-1.42-.98-1.41-.34-2.4-.34h-8.78c-.99,0-1.79.11-2.39.34s-1.08.55-1.42.98-.57.94-.69,1.54c-.12.59-.19,1.28-.19,2.04v2.63Zm33.76-13.54h22.62c1.44,0,2.63.18,3.58.52.95.35,1.69.84,2.25,1.47.55.63.94,1.39,1.16,2.28.22.89.34,1.89.34,2.99v1.55c0,.81-.05,1.54-.17,2.2s-.32,1.22-.62,1.72c-.31.49-.73.92-1.29,1.27-.55.35-1.25.62-2.11.83v.07c.56.11,1.09.26,1.59.45.49.19.93.49,1.3.9s.66.93.88,1.57.32,1.47.32,2.48v4.15h-7.5v-2.94c0-1.28-.22-2.17-.66-2.67-.44-.49-1.24-.74-2.41-.74h-11.78v6.35h-7.5v-24.44Zm7.5,12.02h12.39c1.01,0,1.73-.21,2.14-.63.42-.41.63-1.06.63-1.94v-.81c0-1.08-.28-1.78-.83-2.09-.55-.31-1.42-.47-2.62-.47h-11.71v5.94Zm30.89-12.02h11.51l8.48,15.73,8.47-15.73h11.51v24.44h-7.29v-17.56h-.07l-9.82,17.56h-5.61l-9.82-17.56h-.07v17.56h-7.29v-24.44Zm59.25,0h9.76l13.44,24.44h-8.34l-2.33-4.32h-15.19l-2.2,4.32h-8.37l13.23-24.44Zm.13,14.86h9.59l-4.86-9.18-4.73,9.18Zm29.1-14.86h11.61l14.08,17.76h.07v-17.76h7.5v24.44h-11.62l-14.07-17.76h-.07v17.76h-7.5v-24.44Zm41.15,8.58c0-1.78.24-3.24.73-4.39.48-1.15,1.19-2.05,2.12-2.72.94-.66,2.07-1.12,3.39-1.37s2.83-.37,4.52-.37h8.81c2.65,0,4.78.16,6.38.47,1.6.32,2.81.84,3.64,1.56s1.37,1.66,1.62,2.83.36,2.62.34,4.36h-7.49v-.67c0-.88-.31-1.48-.91-1.79s-1.48-.47-2.6-.47h-8.17c-.99,0-1.79.11-2.39.34s-1.08.55-1.42.98-.57.94-.69,1.54c-.12.59-.19,1.28-.19,2.04v2.63c0,.88.06,1.63.17,2.26s.32,1.14.64,1.52c.31.38.75.66,1.31.84s1.28.27,2.16.27h8c.83,0,1.53-.03,2.09-.1s1.01-.22,1.35-.46c.34-.23.58-.57.73-1.01.14-.44.22-1.04.22-1.81h7.5v2.29c0,1.03-.12,2-.35,2.89-.24.89-.68,1.67-1.33,2.33-.65.67-1.57,1.19-2.74,1.57s-2.7.58-4.59.58h-12.09c-1.69,0-3.19-.13-4.52-.37-1.33-.24-2.46-.7-3.39-1.37-.93-.66-1.64-1.57-2.12-2.7-.49-1.14-.73-2.61-.73-4.41v-7.29Zm39.77-8.58h26.74v5.67h-19.24v3.91h18.23v5.07h-18.23v3.91h19.68v5.88h-27.18v-24.44Zm-392.35,37.29h7.5v24.44h-7.5v-24.44Zm33.86,0h11.61l14.08,17.76h.07v-17.76h7.5v24.44h-11.62l-14.07-17.76h-.07v17.76h-7.5v-24.44Zm58.77,16.44h7.5c0,.65.07,1.16.2,1.54.13.37.34.65.61.84.27.19.61.31,1.01.35.4.05.88.07,1.42.07h9.18c.4,0,.8-.02,1.18-.05.38-.04.73-.13,1.03-.27.31-.15.55-.36.73-.63s.27-.64.27-1.11c0-.54-.1-.96-.29-1.25-.19-.29-.64-.52-1.35-.67-.71-.16-1.77-.25-3.18-.29-1.4-.04-3.31-.05-5.72-.05-2.81,0-5.05-.1-6.72-.31-1.66-.2-2.93-.57-3.8-1.11-.86-.54-1.42-1.29-1.67-2.25-.25-.95-.37-2.19-.37-3.7,0-1.1.07-2.13.2-3.09.13-.95.52-1.78,1.16-2.48.64-.7,1.63-1.25,2.95-1.65,1.33-.41,3.17-.61,5.54-.61h10.47c2.16,0,3.86.18,5.11.52,1.25.35,2.2.85,2.83,1.48s1.05,1.4,1.23,2.28.27,1.86.27,2.94v.78h-7.5c0-.45-.03-.83-.08-1.15-.06-.31-.2-.58-.44-.78-.23-.2-.6-.35-1.1-.46-.49-.1-1.17-.15-2.02-.15h-8.31c-.85,0-1.54.15-2.06.46-.52.3-.78.78-.78,1.43,0,.54.09.96.27,1.25.18.29.58.5,1.2.64.62.13,1.52.22,2.7.24,1.18.02,2.77.03,4.78.03,2.9,0,5.29.07,7.16.2,1.87.13,3.33.48,4.39,1.02s1.79,1.33,2.2,2.36.61,2.44.61,4.22c0,1.64-.17,2.96-.51,3.97s-.95,1.78-1.85,2.33c-.9.55-2.14.92-3.72,1.1s-3.61.27-6.11.27h-9.08c-1.71,0-3.17-.1-4.37-.29-1.21-.19-2.19-.53-2.96-1.01-.76-.49-1.33-1.15-1.69-2.01s-.54-1.95-.54-3.28v-1.69Zm54.56-16.44h28.56v6.08h-10.53v18.37h-7.5v-18.37h-10.53v-6.08Zm53.14,0h7.5v24.44h-7.5v-24.44Zm32.07,0h28.56v6.08h-10.53v18.37h-7.5v-18.37h-10.53v-6.08Zm52.73,0h7.5v14.11c0,1.55.31,2.66.94,3.33.63.66,1.71.99,3.24.99h7.43c1.53,0,2.61-.33,3.24-.99.63-.67.94-1.77.94-3.33v-14.11h7.5v15.73c0,3.06-.81,5.32-2.41,6.79-1.61,1.47-4.15,2.2-7.61,2.2h-10.74c-3.46,0-6-.73-7.61-2.2-1.61-1.46-2.41-3.73-2.41-6.79v-15.73Zm54.96,0h28.56v6.08h-10.53v18.37h-7.5v-18.37h-10.53v-6.08Zm52.73,0h26.74v5.67h-19.24v3.91h18.23v5.07h-18.23v3.91h19.68v5.88h-27.18v-24.44ZM241.4,101.85c-8.05,0-14.57,6.53-14.57,14.61s6.51,14.63,14.57,14.63,14.57-6.56,14.57-14.63-6.51-14.61-14.57-14.61Zm90.48-45.54c-8.8-22.36-57.48-21.43-106.06.95-26.24,12.08-47.42,28.1-59.79,43.72,9.55-7.93,21.41-15.42,34.84-21.61,41.21-18.98,81.78-18.67,90.64.67,9.83,21.51-18.05,44.77-34.58,52.87-9.27,4.55-19.44,7.36-29.82,7.16,0,0-14.81,37.45,29.03,92.14-5.32-15.46-6.15-27.5-6.09-36.52.1-12.12,2.33-24.22,7-35.41,2.65-6.37,5.87-12.58,10.16-18.01,5.52-6.96,15.86-16.31,24.95-23.12,4.73-3.58,9.45-7.2,14.14-10.86,16.21-12.6,33.79-31.12,25.57-51.98Z"/>
</svg>